<svg xmlns="http://www.w3.org/2000/svg" xmlns:xlink="http://www.w3.org/1999/xlink" width="500" zoomAndPan="magnify" viewBox="0 0 375 374.999991" height="500" preserveAspectRatio="xMidYMid meet" version="1.0"><defs><clipPath id="736edc19bc"><path d="M 168.46875 206 L 200 206 L 200 238 L 168.46875 238 Z M 168.46875 206 " clip-rule="nonzero"/></clipPath><clipPath id="15c66240e6"><path d="M 264 206 L 298.21875 206 L 298.21875 238 L 264 238 Z M 264 206 " clip-rule="nonzero"/></clipPath><clipPath id="dc350d15c1"><path d="M 168.46875 237 L 234 237 L 234 267.339844 L 168.46875 267.339844 Z M 168.46875 237 " clip-rule="nonzero"/></clipPath><clipPath id="606b2bcd7f"><path d="M 233 237 L 298 237 L 298 267.339844 L 233 267.339844 Z M 233 237 " clip-rule="nonzero"/></clipPath><clipPath id="f56781b7d2"><path d="M 168.46875 175 L 234 175 L 234 206 L 168.46875 206 Z M 168.46875 175 " clip-rule="nonzero"/></clipPath><clipPath id="ed19527059"><path d="M 204 103.089844 L 272 103.089844 L 272 187 L 204 187 Z M 204 103.089844 " clip-rule="nonzero"/></clipPath><clipPath id="07b8114a7d"><path d="M 135 128 L 190 128 L 190 183 L 135 183 Z M 135 128 " clip-rule="nonzero"/></clipPath><clipPath id="e975e2e425"><path d="M 37.503906 261.398438 L 79.574219 103.402344 L 196.984375 134.667969 L 154.914062 292.664062 Z M 37.503906 261.398438 " clip-rule="nonzero"/></clipPath><clipPath id="13c98b593f"><path d="M 37.503906 261.398438 L 79.574219 103.402344 L 196.984375 134.667969 L 154.914062 292.664062 Z M 37.503906 261.398438 " clip-rule="nonzero"/></clipPath><clipPath id="4599ab1b2b"><path d="M 37.503906 261.398438 L 79.574219 103.402344 L 196.984375 134.667969 L 154.914062 292.664062 Z M 37.503906 261.398438 " clip-rule="nonzero"/></clipPath><clipPath id="3b3d2ac609"><path d="M 134 126 L 191 126 L 191 184 L 134 184 Z M 134 126 " clip-rule="nonzero"/></clipPath><clipPath id="d35569b279"><path d="M 37.503906 261.398438 L 79.574219 103.402344 L 196.984375 134.667969 L 154.914062 292.664062 Z M 37.503906 261.398438 " clip-rule="nonzero"/></clipPath><clipPath id="237d5e97bc"><path d="M 37.503906 261.398438 L 79.574219 103.402344 L 196.984375 134.667969 L 154.914062 292.664062 Z M 37.503906 261.398438 " clip-rule="nonzero"/></clipPath><clipPath id="7be38c57cb"><path d="M 37.503906 261.398438 L 79.574219 103.402344 L 196.984375 134.667969 L 154.914062 292.664062 Z M 37.503906 261.398438 " clip-rule="nonzero"/></clipPath><clipPath id="55308a6134"><path d="M 147 140 L 178 140 L 178 171 L 147 171 Z M 147 140 " clip-rule="nonzero"/></clipPath><clipPath id="6c9932aace"><path d="M 37.503906 261.398438 L 79.574219 103.402344 L 196.984375 134.667969 L 154.914062 292.664062 Z M 37.503906 261.398438 " clip-rule="nonzero"/></clipPath><clipPath id="4aa2de10f6"><path d="M 37.503906 261.398438 L 79.574219 103.402344 L 196.984375 134.667969 L 154.914062 292.664062 Z M 37.503906 261.398438 " clip-rule="nonzero"/></clipPath><clipPath id="458c64d488"><path d="M 37.503906 261.398438 L 79.574219 103.402344 L 196.984375 134.667969 L 154.914062 292.664062 Z M 37.503906 261.398438 " clip-rule="nonzero"/></clipPath><clipPath id="8fa70147f9"><path d="M 64 123 L 137 123 L 137 230 L 64 230 Z M 64 123 " clip-rule="nonzero"/></clipPath><clipPath id="61b9aa981c"><path d="M 37.503906 261.398438 L 79.574219 103.402344 L 196.984375 134.667969 L 154.914062 292.664062 Z M 37.503906 261.398438 " clip-rule="nonzero"/></clipPath><clipPath id="0676a95538"><path d="M 37.503906 261.398438 L 79.574219 103.402344 L 196.984375 134.667969 L 154.914062 292.664062 Z M 37.503906 261.398438 " clip-rule="nonzero"/></clipPath><clipPath id="a4c9488238"><path d="M 37.503906 261.398438 L 79.574219 103.402344 L 196.984375 134.667969 L 154.914062 292.664062 Z M 37.503906 261.398438 " clip-rule="nonzero"/></clipPath><clipPath id="b07cd1239f"><path d="M 105 127 L 119 127 L 119 135 L 105 135 Z M 105 127 " clip-rule="nonzero"/></clipPath><clipPath id="57e6b04045"><path d="M 37.503906 261.398438 L 79.574219 103.402344 L 196.984375 134.667969 L 154.914062 292.664062 Z M 37.503906 261.398438 " clip-rule="nonzero"/></clipPath><clipPath id="6cd0326a93"><path d="M 37.503906 261.398438 L 79.574219 103.402344 L 196.984375 134.667969 L 154.914062 292.664062 Z M 37.503906 261.398438 " clip-rule="nonzero"/></clipPath><clipPath id="9c8c2fdcaf"><path d="M 37.503906 261.398438 L 79.574219 103.402344 L 196.984375 134.667969 L 154.914062 292.664062 Z M 37.503906 261.398438 " clip-rule="nonzero"/></clipPath><clipPath id="db2ef915b5"><path d="M 104 126 L 120 126 L 120 136 L 104 136 Z M 104 126 " clip-rule="nonzero"/></clipPath><clipPath id="12abc199be"><path d="M 37.503906 261.398438 L 79.574219 103.402344 L 196.984375 134.667969 L 154.914062 292.664062 Z M 37.503906 261.398438 " clip-rule="nonzero"/></clipPath><clipPath id="f26cd605c1"><path d="M 37.503906 261.398438 L 79.574219 103.402344 L 196.984375 134.667969 L 154.914062 292.664062 Z M 37.503906 261.398438 " clip-rule="nonzero"/></clipPath><clipPath id="3a7f0dc6aa"><path d="M 37.503906 261.398438 L 79.574219 103.402344 L 196.984375 134.667969 L 154.914062 292.664062 Z M 37.503906 261.398438 " clip-rule="nonzero"/></clipPath><clipPath id="5c4b378d06"><path d="M 40 150 L 167 150 L 167 262 L 40 262 Z M 40 150 " clip-rule="nonzero"/></clipPath><clipPath id="2f895d0cb6"><path d="M 37.503906 261.398438 L 79.574219 103.402344 L 196.984375 134.667969 L 154.914062 292.664062 Z M 37.503906 261.398438 " clip-rule="nonzero"/></clipPath><clipPath id="a197cc5eb0"><path d="M 37.503906 261.398438 L 79.574219 103.402344 L 196.984375 134.667969 L 154.914062 292.664062 Z M 37.503906 261.398438 " clip-rule="nonzero"/></clipPath><clipPath id="e0b2f100ab"><path d="M 37.503906 261.398438 L 79.574219 103.402344 L 196.984375 134.667969 L 154.914062 292.664062 Z M 37.503906 261.398438 " clip-rule="nonzero"/></clipPath><clipPath id="586fe131c7"><path d="M 39 149 L 168 149 L 168 263 L 39 263 Z M 39 149 " clip-rule="nonzero"/></clipPath><clipPath id="9e3524c3d4"><path d="M 37.503906 261.398438 L 79.574219 103.402344 L 196.984375 134.667969 L 154.914062 292.664062 Z M 37.503906 261.398438 " clip-rule="nonzero"/></clipPath><clipPath id="e2eded6d3e"><path d="M 37.503906 261.398438 L 79.574219 103.402344 L 196.984375 134.667969 L 154.914062 292.664062 Z M 37.503906 261.398438 " clip-rule="nonzero"/></clipPath><clipPath id="7b35d2207e"><path d="M 37.503906 261.398438 L 79.574219 103.402344 L 196.984375 134.667969 L 154.914062 292.664062 Z M 37.503906 261.398438 " clip-rule="nonzero"/></clipPath><clipPath id="760a5691fe"><path d="M 55 230 L 67 230 L 67 236 L 55 236 Z M 55 230 " clip-rule="nonzero"/></clipPath><clipPath id="7d3195c66d"><path d="M 37.503906 261.398438 L 79.574219 103.402344 L 196.984375 134.667969 L 154.914062 292.664062 Z M 37.503906 261.398438 " clip-rule="nonzero"/></clipPath><clipPath id="5fd1d40535"><path d="M 37.503906 261.398438 L 79.574219 103.402344 L 196.984375 134.667969 L 154.914062 292.664062 Z M 37.503906 261.398438 " clip-rule="nonzero"/></clipPath><clipPath id="a680593e17"><path d="M 37.503906 261.398438 L 79.574219 103.402344 L 196.984375 134.667969 L 154.914062 292.664062 Z M 37.503906 261.398438 " clip-rule="nonzero"/></clipPath><clipPath id="bb4a17406e"><path d="M 54 229 L 68 229 L 68 238 L 54 238 Z M 54 229 " clip-rule="nonzero"/></clipPath><clipPath id="91406924c7"><path d="M 37.503906 261.398438 L 79.574219 103.402344 L 196.984375 134.667969 L 154.914062 292.664062 Z M 37.503906 261.398438 " clip-rule="nonzero"/></clipPath><clipPath id="d2a2731be9"><path d="M 37.503906 261.398438 L 79.574219 103.402344 L 196.984375 134.667969 L 154.914062 292.664062 Z M 37.503906 261.398438 " clip-rule="nonzero"/></clipPath><clipPath id="75a5db2100"><path d="M 37.503906 261.398438 L 79.574219 103.402344 L 196.984375 134.667969 L 154.914062 292.664062 Z M 37.503906 261.398438 " clip-rule="nonzero"/></clipPath></defs><path fill="#fec303" d="M 263.105469 229.109375 C 263.105469 232.824219 260.085938 235.832031 256.359375 235.832031 L 207.441406 235.832031 C 203.714844 235.832031 200.695312 232.824219 200.695312 229.109375 L 200.695312 214.820312 C 200.695312 211.105469 203.714844 208.09375 207.441406 208.09375 L 256.359375 208.09375 C 260.085938 208.09375 263.105469 211.105469 263.105469 214.820312 Z M 263.105469 229.109375 " fill-opacity="1" fill-rule="nonzero"/><path fill="#321019" d="M 256.359375 237.050781 L 207.441406 237.050781 C 203.046875 237.050781 199.46875 233.488281 199.46875 229.109375 L 199.46875 214.820312 C 199.46875 210.4375 203.046875 206.875 207.441406 206.875 L 256.359375 206.875 C 260.753906 206.875 264.328125 210.441406 264.328125 214.820312 L 264.328125 229.109375 C 264.328125 233.488281 260.753906 237.050781 256.359375 237.050781 Z M 207.441406 209.3125 C 204.394531 209.3125 201.917969 211.78125 201.917969 214.816406 L 201.917969 229.109375 C 201.917969 232.144531 204.394531 234.613281 207.441406 234.613281 L 256.359375 234.613281 C 259.40625 234.613281 261.882812 232.144531 261.882812 229.109375 L 261.882812 214.816406 C 261.882812 211.78125 259.40625 209.3125 256.359375 209.3125 Z M 207.441406 209.3125 " fill-opacity="1" fill-rule="nonzero"/><path fill="#fec303" d="M 191.320312 208.09375 L 169.671875 208.09375 L 169.671875 235.832031 L 191.320312 235.832031 C 195.046875 235.832031 198.070312 232.824219 198.070312 229.109375 L 198.070312 214.820312 C 198.070312 211.105469 195.046875 208.09375 191.320312 208.09375 Z M 191.320312 208.09375 " fill-opacity="1" fill-rule="nonzero"/><g clip-path="url(#736edc19bc)"><path fill="#321019" d="M 191.320312 237.050781 L 169.671875 237.050781 C 169 237.050781 168.449219 236.507812 168.449219 235.832031 L 168.449219 208.09375 C 168.449219 207.421875 169 206.875 169.671875 206.875 L 191.320312 206.875 C 195.714844 206.875 199.292969 210.4375 199.292969 214.816406 L 199.292969 229.109375 C 199.292969 233.488281 195.714844 237.050781 191.320312 237.050781 Z M 170.898438 234.613281 L 191.320312 234.613281 C 194.367188 234.613281 196.84375 232.144531 196.84375 229.109375 L 196.84375 214.820312 C 196.84375 211.785156 194.367188 209.3125 191.320312 209.3125 L 170.898438 209.3125 Z M 170.898438 234.613281 " fill-opacity="1" fill-rule="nonzero"/></g><path fill="#fec303" d="M 296.9375 208.09375 L 272.292969 208.09375 C 268.566406 208.09375 265.542969 211.105469 265.542969 214.816406 L 265.542969 229.109375 C 265.542969 232.820312 268.566406 235.832031 272.292969 235.832031 L 296.9375 235.832031 Z M 296.9375 208.09375 " fill-opacity="1" fill-rule="nonzero"/><g clip-path="url(#15c66240e6)"><path fill="#321019" d="M 296.9375 237.050781 L 272.292969 237.050781 C 267.898438 237.050781 264.320312 233.488281 264.320312 229.109375 L 264.320312 214.820312 C 264.320312 210.4375 267.898438 206.875 272.292969 206.875 L 296.9375 206.875 C 297.613281 206.875 298.160156 207.421875 298.160156 208.09375 L 298.160156 235.832031 C 298.160156 236.507812 297.613281 237.050781 296.9375 237.050781 Z M 272.292969 209.3125 C 269.246094 209.3125 266.769531 211.78125 266.769531 214.816406 L 266.769531 229.109375 C 266.769531 232.144531 269.246094 234.613281 272.292969 234.613281 L 295.714844 234.613281 L 295.714844 209.3125 Z M 272.292969 209.3125 " fill-opacity="1" fill-rule="nonzero"/></g><path fill="#fec303" d="M 232.085938 259.371094 C 232.085938 263.082031 229.066406 266.09375 225.339844 266.09375 L 176.421875 266.09375 C 172.695312 266.09375 169.675781 263.082031 169.675781 259.371094 L 169.675781 245.078125 C 169.675781 241.367188 172.695312 238.355469 176.421875 238.355469 L 225.339844 238.355469 C 229.066406 238.355469 232.085938 241.367188 232.085938 245.078125 Z M 232.085938 259.371094 " fill-opacity="1" fill-rule="nonzero"/><g clip-path="url(#dc350d15c1)"><path fill="#321019" d="M 225.339844 267.3125 L 176.421875 267.3125 C 172.027344 267.3125 168.449219 263.75 168.449219 259.371094 L 168.449219 245.082031 C 168.449219 240.699219 172.027344 237.136719 176.421875 237.136719 L 225.339844 237.136719 C 229.734375 237.136719 233.308594 240.703125 233.308594 245.082031 L 233.308594 259.371094 C 233.308594 263.75 229.734375 267.3125 225.339844 267.3125 Z M 176.421875 239.574219 C 173.375 239.574219 170.898438 242.042969 170.898438 245.078125 L 170.898438 259.371094 C 170.898438 262.40625 173.375 264.875 176.421875 264.875 L 225.339844 264.875 C 228.386719 264.875 230.863281 262.40625 230.863281 259.371094 L 230.863281 245.078125 C 230.863281 242.042969 228.386719 239.574219 225.339844 239.574219 Z M 176.421875 239.574219 " fill-opacity="1" fill-rule="nonzero"/></g><path fill="#fec303" d="M 296.75 259.371094 C 296.75 263.082031 293.730469 266.09375 290.003906 266.09375 L 241.085938 266.09375 C 237.359375 266.09375 234.335938 263.082031 234.335938 259.371094 L 234.335938 245.078125 C 234.335938 241.367188 237.359375 238.355469 241.085938 238.355469 L 290.003906 238.355469 C 293.730469 238.355469 296.75 241.367188 296.75 245.078125 Z M 296.75 259.371094 " fill-opacity="1" fill-rule="nonzero"/><g clip-path="url(#606b2bcd7f)"><path fill="#321019" d="M 290.003906 267.3125 L 241.085938 267.3125 C 236.6875 267.3125 233.113281 263.75 233.113281 259.371094 L 233.113281 245.082031 C 233.113281 240.699219 236.691406 237.136719 241.085938 237.136719 L 290.003906 237.136719 C 294.398438 237.136719 297.972656 240.703125 297.972656 245.082031 L 297.972656 259.371094 C 297.972656 263.75 294.398438 267.3125 290.003906 267.3125 Z M 241.085938 239.574219 C 238.039062 239.574219 235.558594 242.042969 235.558594 245.078125 L 235.558594 259.371094 C 235.558594 262.40625 238.039062 264.875 241.085938 264.875 L 290.003906 264.875 C 293.046875 264.875 295.527344 262.40625 295.527344 259.371094 L 295.527344 245.078125 C 295.527344 242.042969 293.046875 239.574219 290.003906 239.574219 Z M 241.085938 239.574219 " fill-opacity="1" fill-rule="nonzero"/></g><path fill="#fec303" d="M 232.085938 197.761719 C 232.085938 201.476562 229.066406 204.488281 225.339844 204.488281 L 176.421875 204.488281 C 172.695312 204.488281 169.675781 201.476562 169.675781 197.761719 L 169.675781 183.472656 C 169.675781 179.757812 172.695312 176.75 176.421875 176.75 L 225.339844 176.75 C 229.066406 176.75 232.085938 179.757812 232.085938 183.472656 Z M 232.085938 197.761719 " fill-opacity="1" fill-rule="nonzero"/><g clip-path="url(#f56781b7d2)"><path fill="#321019" d="M 225.339844 205.707031 L 176.421875 205.707031 C 172.027344 205.707031 168.449219 202.144531 168.449219 197.765625 L 168.449219 183.472656 C 168.449219 179.09375 172.027344 175.53125 176.421875 175.53125 L 225.339844 175.53125 C 229.734375 175.53125 233.308594 179.09375 233.308594 183.472656 L 233.308594 197.765625 C 233.308594 202.144531 229.734375 205.707031 225.339844 205.707031 Z M 176.421875 177.96875 C 173.375 177.96875 170.898438 180.4375 170.898438 183.472656 L 170.898438 197.761719 C 170.898438 200.800781 173.375 203.269531 176.421875 203.269531 L 225.339844 203.269531 C 228.386719 203.269531 230.863281 200.800781 230.863281 197.761719 L 230.863281 183.472656 C 230.863281 180.4375 228.386719 177.96875 225.339844 177.96875 Z M 176.421875 177.96875 " fill-opacity="1" fill-rule="nonzero"/></g><path fill="#fec303" d="M 296.75 197.761719 C 296.75 201.476562 293.730469 204.488281 290.003906 204.488281 L 241.085938 204.488281 C 237.359375 204.488281 234.335938 201.476562 234.335938 197.761719 L 234.335938 183.472656 C 234.335938 179.757812 237.359375 176.75 241.085938 176.75 L 290.003906 176.75 C 293.730469 176.75 296.75 179.757812 296.75 183.472656 Z M 296.75 197.761719 " fill-opacity="1" fill-rule="nonzero"/><path fill="#321019" d="M 290.003906 205.707031 L 241.085938 205.707031 C 236.6875 205.707031 233.113281 202.144531 233.113281 197.765625 L 233.113281 183.472656 C 233.113281 179.09375 236.691406 175.53125 241.085938 175.53125 L 290.003906 175.53125 C 294.398438 175.53125 297.972656 179.09375 297.972656 183.472656 L 297.972656 197.765625 C 297.972656 202.144531 294.398438 205.707031 290.003906 205.707031 Z M 241.085938 177.96875 C 238.039062 177.96875 235.558594 180.4375 235.558594 183.472656 L 235.558594 197.761719 C 235.558594 200.800781 238.039062 203.269531 241.085938 203.269531 L 290.003906 203.269531 C 293.046875 203.269531 295.527344 200.800781 295.527344 197.761719 L 295.527344 183.472656 C 295.527344 180.4375 293.046875 177.96875 290.003906 177.96875 Z M 241.085938 177.96875 " fill-opacity="1" fill-rule="nonzero"/><path fill="#fec303" d="M 213.089844 184.054688 C 209.195312 186.019531 205.980469 184.066406 205.945312 179.710938 L 205.441406 109.285156 C 205.410156 104.929688 208.234375 103.515625 211.71875 106.140625 L 267.917969 148.464844 C 271.402344 151.089844 271.0625 154.847656 267.164062 156.808594 Z M 213.089844 184.054688 " fill-opacity="1" fill-rule="nonzero"/><g clip-path="url(#ed19527059)"><path fill="#321019" d="M 210.191406 186.039062 C 206.949219 186.039062 204.75 183.5 204.722656 179.722656 L 204.21875 109.292969 C 204.203125 107.304688 204.726562 105.726562 205.722656 104.722656 C 207.308594 103.132812 209.933594 103.265625 212.457031 105.167969 L 268.65625 147.492188 C 270.691406 149.023438 271.710938 150.980469 271.527344 152.996094 C 271.347656 155.011719 269.992188 156.75 267.714844 157.894531 L 213.640625 185.144531 C 212.464844 185.738281 211.300781 186.039062 210.191406 186.039062 Z M 208.472656 106.039062 C 208.058594 106.039062 207.726562 106.171875 207.457031 106.441406 C 206.9375 106.964844 206.65625 107.972656 206.664062 109.273438 L 207.167969 179.703125 C 207.1875 182.144531 208.316406 183.601562 210.191406 183.601562 C 210.914062 183.601562 211.703125 183.386719 212.539062 182.96875 L 266.613281 155.71875 C 268.105469 154.96875 268.988281 153.921875 269.089844 152.773438 C 269.195312 151.628906 268.515625 150.441406 267.179688 149.4375 L 210.980469 107.113281 C 210.0625 106.421875 209.171875 106.039062 208.472656 106.039062 Z M 208.472656 106.039062 " fill-opacity="1" fill-rule="nonzero"/></g><path fill="#fec303" d="M 252.28125 141.914062 L 261.414062 148.792969 C 264.394531 151.039062 264.105469 154.253906 260.769531 155.933594 L 252.925781 159.886719 " fill-opacity="1" fill-rule="nonzero"/><path fill="#ffffff" d="M 252.925781 161.105469 C 252.480469 161.105469 252.046875 160.859375 251.832031 160.4375 C 251.527344 159.835938 251.769531 159.101562 252.371094 158.796875 L 260.21875 154.84375 C 261.441406 154.230469 262.160156 153.382812 262.242188 152.464844 C 262.324219 151.546875 261.769531 150.589844 260.675781 149.765625 L 251.542969 142.886719 C 251.003906 142.480469 250.898438 141.71875 251.304688 141.179688 C 251.714844 140.644531 252.480469 140.535156 253.019531 140.941406 L 262.152344 147.820312 C 263.941406 149.171875 264.839844 150.898438 264.679688 152.683594 C 264.519531 154.472656 263.328125 156.011719 261.320312 157.019531 L 253.476562 160.972656 C 253.300781 161.0625 253.113281 161.105469 252.925781 161.105469 Z M 252.925781 161.105469 " fill-opacity="1" fill-rule="nonzero"/><path fill="#fec303" d="M 261.335938 204.792969 C 258.335938 206.527344 253.910156 204.515625 251.445312 200.296875 L 231.441406 166.035156 C 228.972656 161.816406 229.40625 156.988281 232.402344 155.25 C 235.398438 153.511719 239.824219 155.523438 242.285156 159.746094 L 262.296875 194.003906 C 264.757812 198.222656 264.328125 203.054688 261.335938 204.792969 Z M 261.335938 204.792969 " fill-opacity="1" fill-rule="nonzero"/><path fill="#321019" d="M 258.9375 206.632812 C 255.777344 206.632812 252.421875 204.386719 250.386719 200.90625 L 230.382812 166.648438 C 229.0625 164.390625 228.449219 161.890625 228.652344 159.601562 C 228.871094 157.160156 229.984375 155.238281 231.785156 154.195312 C 232.691406 153.667969 233.703125 153.402344 234.800781 153.402344 C 237.960938 153.402344 241.3125 155.652344 243.34375 159.132812 L 263.351562 193.390625 C 264.671875 195.644531 265.285156 198.148438 265.082031 200.4375 C 264.863281 202.878906 263.75 204.800781 261.949219 205.84375 C 261.042969 206.371094 260.03125 206.632812 258.9375 206.632812 Z M 234.800781 155.84375 C 234.140625 155.84375 233.542969 155.996094 233.015625 156.300781 C 231.917969 156.9375 231.234375 158.1875 231.089844 159.820312 C 230.929688 161.605469 231.429688 163.597656 232.496094 165.421875 L 252.503906 199.679688 C 254.082031 202.382812 256.664062 204.195312 258.9375 204.195312 C 259.59375 204.195312 260.195312 204.042969 260.71875 203.738281 C 261.816406 203.105469 262.5 201.855469 262.644531 200.222656 C 262.804688 198.433594 262.304688 196.441406 261.238281 194.617188 L 241.230469 160.359375 C 239.652344 157.65625 237.070312 155.84375 234.800781 155.84375 Z M 234.800781 155.84375 " fill-opacity="1" fill-rule="nonzero"/><path fill="#d8d4d3" d="M 278.875 234.828125 C 273.625 237.847656 267.382812 236.871094 264.933594 232.640625 L 245.046875 198.3125 C 242.59375 194.085938 244.863281 188.207031 250.113281 185.1875 C 255.359375 182.164062 261.601562 183.144531 264.054688 187.375 L 283.945312 221.703125 C 286.394531 225.929688 284.125 231.804688 278.875 234.828125 Z M 278.875 234.828125 " fill-opacity="1" fill-rule="nonzero"/><path fill="#ffffff" d="M 278.398438 232.265625 C 278.0625 232.265625 277.726562 232.128906 277.484375 231.855469 C 277.035156 231.351562 277.082031 230.582031 277.585938 230.136719 C 280.015625 227.984375 280.597656 224.386719 278.96875 221.578125 L 277.660156 219.316406 C 277.324219 218.730469 277.523438 217.988281 278.109375 217.648438 C 278.695312 217.3125 279.441406 217.515625 279.78125 218.097656 L 281.089844 220.359375 C 283.296875 224.167969 282.503906 229.046875 279.210938 231.957031 C 278.976562 232.164062 278.6875 232.265625 278.398438 232.265625 Z M 278.398438 232.265625 " fill-opacity="1" fill-rule="nonzero"/><g clip-path="url(#07b8114a7d)"><g clip-path="url(#e975e2e425)"><g clip-path="url(#13c98b593f)"><g clip-path="url(#4599ab1b2b)"><path fill="#d8d4d3" d="M 169.304688 128.980469 C 170.160156 129.207031 171.003906 129.476562 171.832031 129.785156 C 172.660156 130.097656 173.472656 130.445312 174.265625 130.835938 C 175.058594 131.226562 175.832031 131.652344 176.585938 132.121094 C 177.335938 132.585938 178.066406 133.085938 178.769531 133.625 C 179.46875 134.160156 180.144531 134.730469 180.792969 135.332031 C 181.441406 135.9375 182.054688 136.570312 182.640625 137.234375 C 183.226562 137.898438 183.773438 138.585938 184.292969 139.304688 C 184.808594 140.023438 185.289062 140.761719 185.734375 141.527344 C 186.175781 142.292969 186.582031 143.078125 186.949219 143.882812 C 187.316406 144.683594 187.640625 145.503906 187.929688 146.339844 C 188.214844 147.175781 188.457031 148.027344 188.660156 148.886719 C 188.863281 149.746094 189.023438 150.613281 189.140625 151.488281 C 189.257812 152.363281 189.332031 153.246094 189.363281 154.128906 C 189.394531 155.011719 189.382812 155.890625 189.324219 156.773438 C 189.269531 157.65625 189.167969 158.53125 189.027344 159.402344 C 188.886719 160.273438 188.699219 161.136719 188.472656 161.992188 C 188.246094 162.84375 187.976562 163.683594 187.667969 164.511719 C 187.355469 165.339844 187.007812 166.148438 186.617188 166.941406 C 186.226562 167.734375 185.800781 168.507812 185.335938 169.257812 C 184.867188 170.007812 184.367188 170.734375 183.832031 171.433594 C 183.292969 172.136719 182.722656 172.808594 182.117188 173.453125 C 181.515625 174.101562 180.882812 174.714844 180.21875 175.296875 C 179.554688 175.878906 178.863281 176.429688 178.144531 176.945312 C 177.425781 177.460938 176.683594 177.941406 175.917969 178.382812 C 175.152344 178.824219 174.367188 179.226562 173.5625 179.59375 C 172.757812 179.960938 171.9375 180.285156 171.101562 180.570312 C 170.261719 180.855469 169.414062 181.097656 168.554688 181.300781 C 167.691406 181.5 166.824219 181.660156 165.945312 181.777344 C 165.070312 181.890625 164.1875 181.964844 163.304688 181.996094 C 162.417969 182.023438 161.535156 182.011719 160.652344 181.953125 C 159.769531 181.898438 158.890625 181.796875 158.019531 181.65625 C 157.144531 181.511719 156.28125 181.328125 155.425781 181.097656 C 154.570312 180.871094 153.730469 180.601562 152.902344 180.292969 C 152.074219 179.980469 151.261719 179.632812 150.464844 179.242188 C 149.671875 178.851562 148.898438 178.425781 148.148438 177.957031 C 147.394531 177.492188 146.667969 176.992188 145.964844 176.453125 C 145.261719 175.917969 144.585938 175.347656 143.9375 174.746094 C 143.292969 174.140625 142.675781 173.507812 142.089844 172.84375 C 141.507812 172.179688 140.957031 171.492188 140.441406 170.773438 C 139.921875 170.054688 139.441406 169.316406 139 168.550781 C 138.554688 167.785156 138.148438 167 137.78125 166.199219 C 137.414062 165.394531 137.089844 164.574219 136.804688 163.738281 C 136.515625 162.902344 136.273438 162.054688 136.070312 161.191406 C 135.867188 160.332031 135.707031 159.464844 135.589844 158.589844 C 135.472656 157.714844 135.398438 156.835938 135.367188 155.953125 C 135.339844 155.070312 135.351562 154.1875 135.40625 153.304688 C 135.460938 152.421875 135.5625 151.546875 135.703125 150.675781 C 135.847656 149.804688 136.03125 148.941406 136.257812 148.085938 C 136.484375 147.234375 136.753906 146.394531 137.066406 145.566406 C 137.375 144.738281 137.722656 143.929688 138.113281 143.136719 C 138.503906 142.34375 138.933594 141.574219 139.398438 140.820312 C 139.863281 140.070312 140.363281 139.34375 140.902344 138.644531 C 141.4375 137.941406 142.007812 137.269531 142.613281 136.625 C 143.214844 135.976562 143.851562 135.363281 144.515625 134.78125 C 145.179688 134.199219 145.867188 133.648438 146.585938 133.132812 C 147.304688 132.617188 148.046875 132.140625 148.8125 131.695312 C 149.578125 131.253906 150.363281 130.851562 151.167969 130.484375 C 151.972656 130.117188 152.792969 129.792969 153.632812 129.507812 C 154.46875 129.222656 155.316406 128.980469 156.179688 128.78125 C 157.039062 128.578125 157.910156 128.417969 158.785156 128.304688 C 159.664062 128.1875 160.542969 128.113281 161.429688 128.082031 C 162.3125 128.054688 163.195312 128.066406 164.078125 128.125 C 164.960938 128.179688 165.839844 128.28125 166.710938 128.421875 C 167.585938 128.566406 168.449219 128.75 169.304688 128.980469 Z M 169.304688 128.980469 " fill-opacity="1" fill-rule="nonzero"/></g></g></g></g><g clip-path="url(#3b3d2ac609)"><g clip-path="url(#d35569b279)"><g clip-path="url(#237d5e97bc)"><g clip-path="url(#7be38c57cb)"><path fill="#321019" d="M 189.644531 162.304688 C 185.644531 177.316406 170.15625 186.273438 155.117188 182.269531 C 140.074219 178.261719 131.089844 162.789062 135.085938 147.777344 C 139.085938 132.761719 154.574219 123.804688 169.617188 127.8125 C 184.65625 131.816406 193.640625 147.289062 189.644531 162.304688 Z M 137.429688 148.398438 C 133.777344 162.125 141.988281 176.269531 155.738281 179.929688 C 169.488281 183.589844 183.648438 175.40625 187.300781 161.679688 C 190.957031 147.953125 182.742188 133.808594 168.996094 130.148438 C 155.246094 126.488281 141.085938 134.675781 137.429688 148.398438 Z M 137.429688 148.398438 " fill-opacity="1" fill-rule="nonzero"/></g></g></g></g><g clip-path="url(#55308a6134)"><g clip-path="url(#6c9932aace)"><g clip-path="url(#4aa2de10f6)"><g clip-path="url(#458c64d488)"><path fill="#ffffff" d="M 166.230469 140.523438 C 167.1875 140.777344 168.105469 141.121094 168.992188 141.558594 C 169.882812 141.992188 170.71875 142.511719 171.503906 143.109375 C 172.289062 143.710938 173.007812 144.378906 173.660156 145.121094 C 174.3125 145.863281 174.886719 146.660156 175.382812 147.511719 C 175.878906 148.367188 176.285156 149.261719 176.605469 150.195312 C 176.925781 151.128906 177.148438 152.082031 177.28125 153.0625 C 177.410156 154.039062 177.445312 155.019531 177.382812 156.003906 C 177.320312 156.988281 177.164062 157.957031 176.910156 158.910156 C 176.65625 159.863281 176.308594 160.785156 175.875 161.667969 C 175.441406 162.554688 174.921875 163.390625 174.320312 164.171875 C 173.722656 164.957031 173.050781 165.671875 172.308594 166.324219 C 171.570312 166.976562 170.769531 167.546875 169.914062 168.042969 C 169.0625 168.535156 168.167969 168.941406 167.230469 169.261719 C 166.296875 169.578125 165.339844 169.800781 164.359375 169.933594 C 163.378906 170.0625 162.398438 170.09375 161.410156 170.03125 C 160.425781 169.96875 159.457031 169.808594 158.5 169.554688 C 157.546875 169.300781 156.625 168.957031 155.738281 168.519531 C 154.851562 168.085938 154.015625 167.566406 153.230469 166.96875 C 152.445312 166.367188 151.726562 165.699219 151.074219 164.957031 C 150.417969 164.214844 149.84375 163.417969 149.347656 162.566406 C 148.855469 161.710938 148.445312 160.816406 148.125 159.882812 C 147.808594 158.949219 147.582031 157.996094 147.449219 157.015625 C 147.320312 156.039062 147.285156 155.058594 147.347656 154.074219 C 147.410156 153.089844 147.570312 152.121094 147.824219 151.167969 C 148.078125 150.214844 148.421875 149.292969 148.855469 148.410156 C 149.292969 147.523438 149.808594 146.691406 150.410156 145.90625 C 151.007812 145.125 151.679688 144.40625 152.421875 143.753906 C 153.164062 143.101562 153.960938 142.53125 154.816406 142.035156 C 155.671875 141.542969 156.566406 141.136719 157.5 140.816406 C 158.433594 140.5 159.390625 140.277344 160.371094 140.144531 C 161.351562 140.015625 162.332031 139.984375 163.320312 140.046875 C 164.304688 140.109375 165.277344 140.269531 166.230469 140.523438 Z M 166.230469 140.523438 " fill-opacity="1" fill-rule="nonzero"/></g></g></g></g><g clip-path="url(#8fa70147f9)"><g clip-path="url(#61b9aa981c)"><g clip-path="url(#0676a95538)"><g clip-path="url(#a4c9488238)"><path fill="#f2c70f" d="M 136.128906 171.226562 C 131.214844 163.910156 130.796875 152.066406 134.511719 143.363281 C 134.574219 143.207031 134.660156 143.066406 134.730469 142.914062 L 119.765625 129.78125 C 115.640625 126.4375 110.25 123.609375 108.636719 123.664062 C 107.175781 123.710938 106.351562 126.171875 105.765625 127.4375 C 78.589844 186.019531 77.964844 186.023438 64.800781 216.898438 C 62.472656 222.363281 74.511719 226.652344 84.355469 229.683594 Z M 136.128906 171.226562 " fill-opacity="1" fill-rule="nonzero"/></g></g></g></g><g clip-path="url(#b07cd1239f)"><g clip-path="url(#57e6b04045)"><g clip-path="url(#6cd0326a93)"><g clip-path="url(#9c8c2fdcaf)"><path fill="#f2c70f" d="M 118.472656 131.886719 C 113.238281 128.25 110.695312 127.183594 109.851562 127.210938 C 108.445312 127.253906 107.648438 129.628906 107.085938 130.851562 C 106.492188 132.128906 105.910156 133.378906 105.34375 134.601562 " fill-opacity="1" fill-rule="nonzero"/></g></g></g></g><g clip-path="url(#db2ef915b5)"><g clip-path="url(#12abc199be)"><g clip-path="url(#f26cd605c1)"><g clip-path="url(#3a7f0dc6aa)"><path fill="#ffffff" d="M 119.644531 132.199219 C 119.609375 132.328125 119.550781 132.457031 119.464844 132.578125 C 119.085938 133.125 118.328125 133.261719 117.78125 132.878906 C 111.507812 128.519531 109.898438 128.417969 109.882812 128.417969 C 109.691406 128.425781 109.28125 128.835938 108.453125 130.75 C 108.359375 130.96875 108.269531 131.175781 108.183594 131.359375 L 106.441406 135.113281 C 106.160156 135.71875 105.441406 135.980469 104.832031 135.699219 C 104.226562 135.417969 103.964844 134.699219 104.242188 134.09375 L 105.984375 130.339844 C 106.0625 130.175781 106.140625 129.988281 106.226562 129.789062 C 106.867188 128.308594 107.835938 126.066406 109.8125 126 C 111.273438 125.953125 114.421875 127.597656 119.164062 130.894531 C 119.59375 131.191406 119.769531 131.71875 119.644531 132.199219 Z M 119.644531 132.199219 " fill-opacity="1" fill-rule="nonzero"/></g></g></g></g><g clip-path="url(#5c4b378d06)"><g clip-path="url(#2f895d0cb6)"><g clip-path="url(#a197cc5eb0)"><g clip-path="url(#e0b2f100ab)"><path fill="#d8d4d3" d="M 157.066406 152.367188 L 83.429688 235.515625 L 63.25 226.929688 C 63.210938 226.910156 63.167969 226.898438 63.125 226.882812 C 60.808594 225.871094 58.039062 226.660156 56.648438 228.859375 L 41.101562 253.445312 C 39.570312 255.867188 40.296875 259.078125 42.726562 260.609375 C 45.15625 262.144531 48.367188 261.421875 49.902344 258.996094 L 63.507812 237.480469 L 83.894531 246.160156 C 85.84375 246.988281 88.027344 246.433594 89.363281 244.945312 C 89.769531 244.703125 90.144531 244.402344 90.472656 244.035156 L 104.015625 228.746094 L 142.351562 238.238281 C 145.59375 239.03125 149.710938 237.039062 150.339844 234.460938 C 150.964844 231.882812 149.0625 228.34375 145.816406 227.554688 L 112.398438 219.277344 L 165.253906 159.597656 C 167.078125 157.539062 166.722656 154.25 164.460938 152.253906 C 162.203125 150.257812 158.890625 150.308594 157.066406 152.367188 Z M 157.066406 152.367188 " fill-opacity="1" fill-rule="nonzero"/></g></g></g></g><g clip-path="url(#586fe131c7)"><g clip-path="url(#9e3524c3d4)"><g clip-path="url(#e2eded6d3e)"><g clip-path="url(#7b35d2207e)"><path fill="#321019" d="M 151.496094 234.835938 C 150.644531 238.03125 145.882812 240.34375 142.066406 239.414062 L 104.4375 230.097656 L 91.382812 244.835938 C 91.023438 245.242188 90.605469 245.59375 90.140625 245.886719 C 88.414062 247.699219 85.738281 248.257812 83.421875 247.273438 L 63.984375 238.996094 L 50.925781 259.640625 C 50.011719 261.089844 48.589844 262.089844 46.917969 262.46875 C 45.246094 262.84375 43.527344 262.546875 42.078125 261.632812 C 39.695312 260.128906 38.578125 257.289062 39.300781 254.570312 C 39.46875 253.945312 39.730469 253.347656 40.078125 252.796875 L 55.625 228.214844 C 57.300781 225.566406 60.734375 224.515625 63.609375 225.773438 C 63.625 225.777344 63.679688 225.796875 63.730469 225.820312 L 83.097656 234.0625 L 156.160156 151.566406 C 158.421875 149.011719 162.507812 148.914062 165.265625 151.347656 C 167.203125 153.0625 168.054688 155.6875 167.425781 158.039062 C 167.191406 158.921875 166.765625 159.71875 166.160156 160.398438 L 114.632812 218.582031 L 146.109375 226.378906 C 150.128906 227.355469 152.28125 231.601562 151.519531 234.746094 C 151.515625 234.753906 151.496094 234.824219 151.496094 234.835938 Z M 41.644531 255.195312 C 41.195312 256.886719 41.890625 258.652344 43.371094 259.585938 C 44.273438 260.15625 45.34375 260.339844 46.382812 260.105469 C 47.421875 259.875 48.308594 259.25 48.878906 258.351562 L 62.484375 236.835938 C 62.800781 236.332031 63.4375 236.132812 63.984375 236.367188 L 84.371094 245.046875 C 85.789062 245.652344 87.433594 245.285156 88.460938 244.136719 C 88.542969 244.042969 88.640625 243.964844 88.75 243.902344 C 89.058594 243.71875 89.335938 243.492188 89.566406 243.234375 L 103.105469 227.941406 C 103.40625 227.605469 103.867188 227.460938 104.304688 227.570312 L 142.640625 237.066406 C 145.371094 237.730469 148.679688 235.992188 149.152344 234.210938 L 150.324219 234.519531 L 149.164062 234.171875 C 149.636719 232.222656 148.125 229.359375 145.53125 228.726562 L 112.109375 220.449219 C 111.699219 220.347656 111.367188 220.039062 111.242188 219.636719 C 111.117188 219.230469 111.210938 218.792969 111.492188 218.476562 L 164.347656 158.796875 C 164.699219 158.398438 164.945312 157.933594 165.085938 157.414062 C 165.476562 155.941406 164.917969 154.269531 163.660156 153.160156 C 161.90625 151.609375 159.355469 151.613281 157.976562 153.167969 L 84.335938 236.316406 C 83.988281 236.707031 83.433594 236.835938 82.953125 236.628906 L 62.683594 228.007812 C 60.851562 227.207031 58.714844 227.859375 57.675781 229.507812 L 42.128906 254.089844 C 41.910156 254.433594 41.746094 254.804688 41.644531 255.195312 Z M 41.644531 255.195312 " fill-opacity="1" fill-rule="nonzero"/></g></g></g></g><g clip-path="url(#760a5691fe)"><g clip-path="url(#7d3195c66d)"><g clip-path="url(#5fd1d40535)"><g clip-path="url(#a680593e17)"><path fill="#d8d4d3" d="M 66.371094 231.757812 L 63.882812 230.699219 C 63.84375 230.679688 63.800781 230.667969 63.761719 230.652344 C 61.578125 229.699219 58.964844 230.449219 57.65625 232.519531 L 55.535156 235.875 " fill-opacity="1" fill-rule="nonzero"/></g></g></g></g><g clip-path="url(#bb4a17406e)"><g clip-path="url(#91406924c7)"><g clip-path="url(#d2a2731be9)"><g clip-path="url(#75a5db2100)"><path fill="#ffffff" d="M 67.542969 232.070312 C 67.53125 232.125 67.511719 232.179688 67.488281 232.234375 C 67.226562 232.847656 66.515625 233.132812 65.898438 232.871094 L 63.324219 231.78125 C 61.621094 231.039062 59.644531 231.644531 58.679688 233.167969 L 56.558594 236.523438 C 56.203125 237.085938 55.453125 237.253906 54.886719 236.898438 C 54.324219 236.542969 54.152344 235.792969 54.507812 235.230469 L 56.632812 231.875 C 58.226562 229.347656 61.503906 228.347656 64.25 229.546875 C 64.265625 229.550781 64.320312 229.570312 64.375 229.59375 L 66.847656 230.648438 C 67.410156 230.886719 67.695312 231.496094 67.542969 232.070312 Z M 67.542969 232.070312 " fill-opacity="1" fill-rule="nonzero"/></g></g></g></g></svg>